<?xml version="1.0" standalone="no"?>
<!DOCTYPE svg PUBLIC "-//W3C//DTD SVG 20010904//EN"
 "http://www.w3.org/TR/2001/REC-SVG-20010904/DTD/svg10.dtd">
<svg version="1.0" xmlns="http://www.w3.org/2000/svg"
 width="512" height="512">

<g transform="translate(0.000000,512.000000) scale(0.100000,-0.100000)"
fill="#000000" stroke="none">
<path d="M2355 4454 c-266 -48 -495 -171 -683 -367 -204 -214 -319 -477 -338
-776 -17 -258 64 -544 218 -768 182 -265 491 -460 817 -514 89 -15 288 -15
386 1 244 38 492 165 670 345 339 341 450 827 293 1275 -58 165 -146 306 -270
437 -190 198 -423 323 -687 367 -115 19 -298 19 -406 0z m477 -153 c237 -65
455 -211 599 -400 70 -93 155 -267 186 -386 24 -89 27 -118 27 -270 1 -147 -2
-182 -23 -260 -202 -772 -1097 -1086 -1726 -606 -192 147 -337 369 -398 610
-17 70 -21 116 -22 251 0 167 6 208 47 340 28 89 108 241 168 321 145 192 384
349 615 402 39 9 79 18 90 21 11 3 97 3 190 1 134 -2 186 -7 247 -24z"/>
<path d="M2798 4048 c-8 -7 -46 -65 -83 -128 -132 -221 -329 -500 -355 -500
-5 0 -33 21 -62 47 -73 65 -163 121 -222 138 -68 21 -162 19 -229 -4 -100 -35
-207 -116 -207 -158 0 -8 64 -128 143 -266 79 -139 172 -303 208 -366 140
-249 311 -374 529 -388 165 -10 354 59 541 199 207 154 327 305 393 494 40
115 42 139 12 168 -14 15 -33 26 -42 26 -10 0 -58 -27 -107 -60 -49 -34 -91
-59 -94 -56 -2 2 2 17 10 33 64 122 83 304 48 442 -24 95 -62 186 -93 218 -32
35 -65 29 -107 -17 l-37 -41 -25 53 c-33 72 -139 178 -177 178 -15 0 -35 -6
-44 -12z m101 -231 c11 -23 23 -62 26 -87 l7 -45 -94 -93 c-51 -50 -118 -111
-148 -133 -59 -45 -153 -93 -171 -87 -6 2 4 21 21 43 59 73 166 229 240 348
80 129 83 130 119 54z m251 -174 c6 -27 12 -87 11 -134 0 -136 -41 -239 -141
-353 -28 -32 -50 -66 -50 -77 0 -11 12 -32 26 -46 24 -24 31 -25 88 -20 34 3
93 17 131 31 38 14 70 24 71 23 9 -9 -118 -176 -168 -223 -272 -252 -540 -341
-738 -247 -129 60 -190 134 -348 418 -55 99 -130 231 -166 294 -73 125 -73
118 2 152 104 49 214 14 357 -111 113 -99 149 -115 260 -115 70 1 100 5 137
22 116 53 288 197 422 351 43 51 82 90 86 87 4 -3 13 -26 20 -52z"/>
<path d="M1990 3443 c-64 -23 -44 -133 23 -133 61 0 89 81 41 119 -27 21 -37
24 -64 14z"/>
<path d="M4210 2873 c-57 -21 -70 -96 -23 -133 72 -56 165 42 103 108 -12 12
-25 22 -30 22 -4 0 -14 2 -22 4 -7 3 -20 2 -28 -1z"/>
<path d="M847 2702 c-27 -30 -21 -72 15 -109 l32 -33 -32 -33 c-82 -84 11
-177 95 -95 l33 32 33 -32 c84 -82 177 11 95 95 l-32 33 32 33 c82 84 -11 177
-95 95 l-33 -32 -33 32 c-38 37 -84 43 -110 14z"/>
<path d="M3947 2402 c-14 -15 -17 -40 -17 -120 0 -93 2 -102 22 -116 31 -22
64 -20 88 4 17 17 20 33 20 113 0 110 -13 137 -64 137 -19 0 -40 -8 -49 -18z"/>
<path d="M3671 2124 c-26 -33 -26 -55 -2 -85 17 -21 30 -24 100 -27 49 -3 93
1 111 8 51 21 58 94 11 119 -11 6 -60 11 -110 11 -85 0 -91 -1 -110 -26z"/>
<path d="M4081 2124 c-26 -33 -26 -55 -2 -85 16 -20 30 -24 95 -27 119 -6 156
11 156 73 0 52 -27 65 -136 65 -88 0 -94 -1 -113 -26z"/>
<path d="M3947 1992 c-14 -15 -17 -40 -17 -120 0 -93 2 -102 22 -116 30 -22
60 -20 86 4 20 19 22 31 22 113 0 110 -13 137 -64 137 -19 0 -40 -8 -49 -18z"/>
<path d="M2263 1939 c-26 -9 -183 -241 -183 -269 0 -24 31 -58 55 -61 48 -4
57 4 135 121 77 115 93 155 72 187 -12 19 -55 31 -79 22z"/>
<path d="M2807 1938 c-26 -9 -45 -46 -38 -77 6 -31 162 -251 179 -252 54 -4
92 22 92 62 0 26 -161 261 -185 269 -11 4 -32 3 -48 -2z"/>
<path d="M2515 1855 c-25 -24 -25 -26 -25 -213 0 -176 1 -191 21 -216 13 -17
30 -26 49 -26 19 0 36 9 49 26 20 25 21 40 21 216 0 187 0 189 -25 213 -13 14
-33 25 -45 25 -11 0 -32 -11 -45 -25z"/>
<path d="M1019 1326 c-56 -15 -397 -199 -421 -228 -10 -11 -18 -30 -18 -42 0
-27 39 -66 66 -66 10 0 97 43 193 95 95 52 189 99 208 106 19 6 65 9 102 7 59
-3 78 -10 171 -61 150 -83 206 -100 308 -95 81 4 89 7 235 81 145 74 155 77
219 77 64 0 75 -4 216 -76 139 -71 153 -76 228 -81 103 -7 156 8 318 92 118
61 130 65 193 65 65 0 75 -3 220 -77 146 -74 154 -77 235 -81 103 -5 164 14
311 95 90 51 110 58 169 61 36 2 83 -1 103 -8 21 -7 115 -55 209 -106 94 -52
180 -94 192 -94 26 0 64 40 64 67 0 37 -32 60 -219 162 -202 110 -253 126
-365 118 -63 -4 -86 -13 -222 -82 l-152 -77 -78 3 c-75 4 -84 7 -189 66 -125
69 -195 93 -274 93 -83 0 -142 -20 -283 -94 -122 -63 -131 -66 -198 -66 -67 0
-76 3 -198 66 -141 74 -200 94 -283 94 -79 0 -149 -24 -274 -94 l-110 -61 -90
0 -90 0 -105 58 c-58 32 -131 67 -162 78 -65 22 -159 24 -229 5z"/>
<path d="M1021 984 c-66 -18 -418 -209 -431 -234 -24 -45 6 -100 54 -100 14 0
107 45 207 100 101 55 198 103 217 106 67 13 138 -1 214 -42 185 -98 209 -108
294 -112 103 -5 168 13 294 82 118 65 149 76 219 76 50 1 72 -7 209 -77 l154
-78 108 0 108 0 154 78 c138 70 159 78 209 77 70 0 112 -15 225 -78 119 -67
185 -86 288 -80 86 5 100 10 284 107 86 46 154 60 224 47 19 -3 116 -51 217
-106 100 -55 193 -100 205 -100 28 0 66 39 66 67 0 36 -30 59 -210 157 -296
161 -359 164 -617 31 -123 -65 -135 -69 -197 -69 -62 0 -74 4 -218 78 -136 68
-161 78 -223 83 -97 8 -173 -14 -305 -87 -180 -99 -241 -99 -418 -1 -131 73
-210 96 -307 88 -62 -5 -87 -15 -222 -83 -145 -74 -156 -78 -219 -78 -62 0
-74 4 -197 69 -188 97 -263 112 -386 79z"/>
</g>
</svg>
