<?xml version="1.0" standalone="no"?>
<!DOCTYPE svg PUBLIC "-//W3C//DTD SVG 20010904//EN"
 "http://www.w3.org/TR/2001/REC-SVG-20010904/DTD/svg10.dtd">
<svg version="1.0" xmlns="http://www.w3.org/2000/svg"
 width="512" height="512">

<g transform="translate(0.000000,512.000000) scale(0.100000,-0.100000)"
fill="#000000" stroke="none">
<path d="M1626 4854 c-44 -45 -36 -77 37 -151 53 -52 69 -63 97 -63 28 0 44
11 97 63 51 52 63 70 63 96 0 68 -78 104 -134 60 l-26 -20 -26 20 c-36 29 -76
27 -108 -5z"/>
<path d="M4105 4855 c-16 -15 -25 -36 -25 -55 0 -19 9 -40 25 -55 24 -25 26
-25 217 -25 l193 0 -187 -187 -186 -186 -70 31 c-128 57 -220 76 -377 76 -154
0 -217 -11 -354 -64 -85 -33 -204 -105 -268 -164 l-39 -35 -61 50 c-184 150
-430 230 -662 216 -361 -23 -663 -236 -836 -591 -128 -262 -156 -550 -80 -836
31 -115 125 -311 194 -400 81 -106 1390 -1514 1416 -1524 16 -6 34 -6 50 0 30
10 1341 1423 1420 1529 186 248 267 576 221 885 -39 253 -150 477 -328 654
l-89 90 180 180 181 181 0 -208 c0 -207 0 -208 25 -232 32 -33 78 -33 110 0
l25 24 0 311 0 311 -25 24 -24 25 -311 0 -311 0 -24 -25z m-1525 -585 c121
-34 238 -101 335 -191 110 -102 119 -103 216 -14 90 83 142 119 232 160 193
88 409 97 601 25 l58 -22 -128 -129 -128 -128 -56 53 c-31 29 -65 56 -77 60
-50 16 -110 -39 -98 -92 4 -19 60 -82 174 -195 147 -147 171 -167 200 -167 42
0 81 38 81 80 0 25 -13 45 -57 91 l-57 60 139 139 c77 77 143 140 146 140 16
0 112 -88 158 -145 217 -267 287 -632 184 -960 -31 -97 -98 -230 -155 -306
-48 -63 -1307 -1424 -1317 -1424 -11 0 -1271 1364 -1323 1432 -67 89 -134 231
-164 349 -82 324 -3 670 212 924 123 146 274 235 464 276 90 19 263 11 360
-16z"/>
<path d="M1876 3904 c-129 -141 -220 -420 -202 -618 10 -101 41 -225 75 -301
37 -80 114 -199 144 -220 32 -22 74 -19 102 10 36 35 31 68 -19 138 -101 143
-140 262 -140 427 -1 171 44 306 143 439 50 67 54 109 15 140 -41 32 -79 27
-118 -15z"/>
<path d="M666 4214 c-44 -45 -36 -77 37 -151 53 -52 69 -63 97 -63 28 0 44 11
97 63 51 52 63 70 63 96 0 68 -78 104 -134 60 l-26 -20 -26 20 c-36 29 -76 27
-108 -5z"/>
<path d="M1058 3610 c-130 -81 -276 -260 -343 -418 -62 -148 -80 -238 -79
-412 1 -134 5 -168 27 -254 31 -115 96 -254 160 -342 36 -48 320 -362 601
-662 l30 -32 -64 -65 -64 -65 -241 0 -240 0 -262 -263 c-237 -236 -263 -266
-263 -295 0 -22 8 -41 25 -57 24 -25 24 -25 240 -25 l215 0 0 -215 c0 -216 0
-216 25 -240 16 -17 35 -25 57 -25 29 0 59 26 295 263 l263 262 0 240 0 241
63 62 63 62 273 -295 c267 -289 273 -295 311 -295 38 0 45 6 245 221 210 226
219 240 199 294 -10 24 -60 46 -89 39 -15 -4 -89 -75 -187 -180 -88 -96 -165
-173 -170 -172 -4 2 -112 115 -239 252 l-231 249 81 81 80 80 60 -57 c50 -48
65 -57 95 -57 48 0 76 29 76 77 0 35 -11 48 -168 205 -154 154 -171 168 -203
168 -45 0 -79 -34 -79 -79 0 -25 11 -44 52 -87 l52 -55 -74 -74 c-41 -41 -78
-75 -82 -75 -10 0 -578 616 -616 669 -45 61 -90 151 -118 233 -111 327 0 724
259 923 115 88 117 91 117 125 0 40 -39 80 -77 80 -15 0 -49 -14 -75 -30z
m-53 -2570 l-160 -160 -125 0 -125 0 160 160 160 160 125 0 125 0 -160 -160z
m115 -365 l-160 -160 0 125 0 125 158 158 157 157 3 -122 3 -122 -161 -161z"/>
<path d="M3866 1414 c-44 -45 -36 -77 37 -151 87 -86 107 -86 194 0 51 52 63
70 63 96 0 68 -78 104 -134 60 l-26 -20 -26 20 c-36 29 -76 27 -108 -5z"/>
<path d="M4506 774 c-44 -45 -36 -77 37 -151 87 -86 107 -86 194 0 51 52 63
70 63 96 0 68 -78 104 -134 60 l-26 -20 -26 20 c-36 29 -76 27 -108 -5z"/>
<path d="M2586 534 c-44 -45 -36 -77 37 -151 87 -86 107 -86 194 0 51 52 63
70 63 96 0 68 -78 104 -134 60 l-26 -20 -26 20 c-36 29 -76 27 -108 -5z"/>
</g>
</svg>
